<svg width="58" height="24" viewBox="0 0 58 24" fill="none" xmlns="http://www.w3.org/2000/svg">
<g clip-path="url(#clip0_1_6)">
<path fill-rule="evenodd" clip-rule="evenodd" d="M11.1298 20.136H7.27354V16.56C7.27354 16.2524 7.1538 15.9573 6.94067 15.7398C6.72754 15.5222 6.43847 15.4 6.13705 15.4C5.83564 15.4 5.54657 15.5222 5.33344 15.7398C5.1203 15.9573 5.00057 16.2524 5.00057 16.56V20.136H1.12867C0.827259 20.136 0.538189 20.2582 0.325057 20.4758C0.111924 20.6933 -0.0078125 20.9884 -0.0078125 21.296C-0.0078125 21.6037 0.111924 21.8987 0.325057 22.1162C0.538189 22.3338 0.827259 22.456 1.12867 22.456H11.1298C11.4312 22.456 11.7202 22.3338 11.9334 22.1162C12.1465 21.8987 12.2662 21.6037 12.2662 21.296C12.2662 20.9884 12.1465 20.6933 11.9334 20.4758C11.7202 20.2582 11.4312 20.136 11.1298 20.136ZM3.52705 7.32C3.52705 3.64 5.15732 3.096 6.13705 3.096C7.10894 3.096 8.74705 3.648 8.74705 7.32V7.608C8.74705 11.288 7.10894 11.832 6.13705 11.832C5.15732 11.832 3.51921 11.28 3.51921 7.608V7.32H3.52705ZM6.13705 14.152C9.14678 14.152 11.02 11.648 11.02 7.608V7.32C11.02 3.28 9.14678 0.776004 6.13705 0.776004C3.11948 0.776004 1.24624 3.28 1.24624 7.32V7.608C1.24624 11.648 3.11948 14.152 6.13705 14.152ZM26.1549 8.28H13.9592C13.6578 8.28 13.3687 8.40222 13.1556 8.61976C12.9425 8.8373 12.8227 9.13235 12.8227 9.44C12.8227 9.74765 12.9425 10.0427 13.1556 10.2602C13.3687 10.4778 13.6578 10.6 13.9592 10.6H26.1549C26.4563 10.6 26.7454 10.4778 26.9585 10.2602C27.1716 10.0427 27.2914 9.74765 27.2914 9.44C27.2914 9.13235 27.1716 8.8373 26.9585 8.61976C26.7454 8.40222 26.4563 8.28 26.1549 8.28ZM24.94 20.672C19.3908 22.144 17.5333 21.312 16.9925 20.88C16.6398 20.6 16.483 20.24 16.483 19.696V19H24.5168C25.1438 19 25.6611 18.48 25.6611 17.84V13.776C25.6611 13.136 25.1516 12.616 24.5168 12.616H15.3465C15.0451 12.616 14.756 12.7382 14.5429 12.9558C14.3298 13.1733 14.21 13.4684 14.21 13.776C14.21 14.0837 14.3298 14.3787 14.5429 14.5962C14.756 14.8138 15.0451 14.936 15.3465 14.936H23.3803V16.68H15.3387C14.7116 16.68 14.2022 17.2 14.2022 17.84V19.696C14.1844 20.2767 14.3015 20.8534 14.544 21.379C14.7865 21.9046 15.1474 22.3641 15.5973 22.72C16.5379 23.456 17.9016 23.832 19.6808 23.832C21.2876 23.832 23.2392 23.528 25.5122 22.928C25.6573 22.8897 25.7936 22.8225 25.9133 22.7304C26.033 22.6383 26.1338 22.523 26.2098 22.3911C26.2859 22.2593 26.3358 22.1134 26.3566 21.9619C26.3774 21.8104 26.3688 21.6561 26.3312 21.508C26.2937 21.3599 26.2279 21.2207 26.1376 21.0986C26.0474 20.9764 25.9344 20.8735 25.8053 20.7959C25.6761 20.7183 25.5332 20.6674 25.3847 20.6461C25.2363 20.6249 25.0852 20.6337 24.94 20.672ZM15.9108 6.264H24.3914C24.6928 6.264 24.9819 6.14179 25.195 5.92425C25.4081 5.70671 25.5279 5.41166 25.5279 5.104C25.5279 4.79635 25.4081 4.5013 25.195 4.28376C24.9819 4.06622 24.6928 3.944 24.3914 3.944H17.0552V1.152C17.0552 0.999671 17.0258 0.848829 16.9687 0.708092C16.9115 0.567354 16.8278 0.439476 16.7223 0.33176C16.6168 0.224045 16.4915 0.1386 16.3536 0.0803041C16.2157 0.0220087 16.0679 -0.00799561 15.9187 -0.00799561C15.7694 -0.00799561 15.6216 0.0220087 15.4838 0.0803041C15.3459 0.1386 15.2206 0.224045 15.1151 0.33176C15.0095 0.439476 14.9258 0.567354 14.8687 0.708092C14.8116 0.848829 14.7822 0.999671 14.7822 1.152V5.096C14.7822 5.736 15.2916 6.256 15.9187 6.256L15.9108 6.264Z" fill="black"/>
<path d="M57.2162 1.2C57.2162 0.537258 56.6899 0 56.0405 0C55.3912 0 54.8649 0.537258 54.8649 1.2V10.8C54.8649 11.4627 55.3912 12 56.0405 12C56.6899 12 57.2162 11.4627 57.2162 10.8V1.2Z" fill="black"/>
<path fill-rule="evenodd" clip-rule="evenodd" d="M50.5541 10.624C50.658 10.9136 50.8704 11.1492 51.1445 11.279C51.4187 11.4088 51.7321 11.4221 52.0158 11.316C52.2996 11.2099 52.5304 10.9931 52.6576 10.7133C52.7847 10.4335 52.7978 10.1136 52.6938 9.824C52.6546 9.72 51.91 7.68 50.0446 6.224L52.9446 2.944C53.0921 2.77671 53.1888 2.56923 53.2228 2.34685C53.2568 2.12447 53.2267 1.89679 53.1361 1.69157C53.0456 1.48635 52.8985 1.31246 52.7128 1.19108C52.5271 1.06971 52.3108 1.0061 52.0903 1.008H44.9971C44.6956 1.008 44.4066 1.13021 44.1934 1.34776C43.9803 1.5653 43.8606 1.86035 43.8606 2.168C43.8606 2.47565 43.9803 2.7707 44.1934 2.98824C44.4066 3.20579 44.6956 3.328 44.9971 3.328H49.543L44.1506 9.44C43.9479 9.66915 43.8427 9.97109 43.8581 10.2794C43.8736 10.5877 44.0084 10.8771 44.2329 11.084C44.4574 11.2909 44.7532 11.3982 45.0552 11.3825C45.3573 11.3667 45.6409 11.2291 45.8435 11L48.5162 7.96C49.4166 8.64614 50.1203 9.56606 50.5541 10.624ZM54.52 21.216H49.0257C48.9413 21.216 48.8577 21.199 48.7798 21.1661C48.7018 21.1331 48.6309 21.0848 48.5712 21.0239C48.5116 20.9629 48.4642 20.8906 48.4319 20.811C48.3996 20.7315 48.383 20.6461 48.383 20.56V19H55.1627V20.56C55.1627 20.92 54.8727 21.216 54.52 21.216ZM56.2992 13.72C55.6722 13.72 55.1627 14.24 55.1627 14.88V16.68H48.383V14.88C48.383 14.5724 48.2633 14.2773 48.0501 14.0598C47.837 13.8422 47.5479 13.72 47.2465 13.72C46.9451 13.72 46.656 13.8422 46.4429 14.0598C46.2298 14.2773 46.11 14.5724 46.11 14.88V20.56C46.11 21.3493 46.4172 22.1062 46.964 22.6644C47.5108 23.2225 48.2524 23.536 49.0257 23.536H54.52C55.2933 23.536 56.0349 23.2225 56.5817 22.6644C57.1285 22.1062 57.4357 21.3493 57.4357 20.56V14.88C57.4357 14.24 56.9262 13.72 56.2992 13.72ZM33.2795 3.096C35.0195 3.096 35.1057 6.488 35.1057 7.16C35.1057 7.84 35.0195 11.232 33.2795 11.232C31.5473 11.232 31.4611 7.84 31.4611 7.16C31.4611 6.488 31.5473 3.096 33.2795 3.096ZM33.2795 13.552C34.6589 13.552 35.8111 12.808 36.5244 11.456C37.0808 10.384 37.3865 8.896 37.3865 7.16C37.3865 5.432 37.0808 3.944 36.5244 2.872C36.2327 2.24547 35.7731 1.71609 35.1988 1.34515C34.6246 0.9742 33.9591 0.776869 33.2795 0.776001C31.9079 0.776001 30.7557 1.52 30.0425 2.872C29.4781 3.944 29.1803 5.432 29.1803 7.16C29.1803 8.896 29.4781 10.384 30.0425 11.456C30.3336 12.0813 30.7919 12.6099 31.3647 12.9807C31.9374 13.3516 32.6012 13.5496 33.2795 13.552Z" fill="black"/>
<path fill-rule="evenodd" clip-rule="evenodd" d="M40.2865 0.391998C39.6595 0.391998 39.15 0.911998 39.15 1.552V15.776C37.6373 16.256 34.6432 16.672 31.0143 16.672H29.29C28.9875 16.672 28.6975 16.7946 28.4836 17.0129C28.2697 17.2312 28.1496 17.5273 28.1496 17.836C28.1496 18.1447 28.2697 18.4408 28.4836 18.6591C28.6975 18.8774 28.9875 19 29.29 19H31.0143C33.0835 19 36.6654 18.816 39.15 18.184V22.056C39.15 22.3636 39.2697 22.6587 39.4829 22.8762C39.696 23.0938 39.9851 23.216 40.2865 23.216C40.5879 23.216 40.877 23.0938 41.0901 22.8762C41.3032 22.6587 41.423 22.3636 41.423 22.056V1.552C41.423 0.911998 40.9135 0.391998 40.2865 0.391998Z" fill="black"/>
</g>
<defs>
<clipPath id="clip0_1_6">
<rect width="58" height="24" fill="white"/>
</clipPath>
</defs>
</svg>
